HIERARCHY
ROOT Hips
{
	OFFSET 0.000000 0.000000 0.000000
	CHANNELS 6 Xposition Yposition Zposition Zrotation Yrotation Xrotation 
	JOINT LowerBack
	{
		OFFSET 0.000000 0.000000 0.000000
		CHANNELS 3 Zrotation Yrotation Xrotation
		JOINT Spine
		{
			OFFSET 0.028270 2.035590 -0.193380
			CHANNELS 3 Zrotation Yrotation Xrotation
			JOINT Spine1
			{
				OFFSET 0.056720 2.048850 -0.042750
				CHANNELS 3 Zrotation Yrotation Xrotation
				JOINT Neck
				{
					OFFSET 0.000000 0.000000 0.000000
					CHANNELS 3 Zrotation Yrotation Xrotation
					JOINT Neck1
					{
						OFFSET -0.054170 1.746240 0.172020
						CHANNELS 3 Zrotation Yrotation Xrotation
						JOINT Head
						{
							OFFSET 0.104070 1.761360 -0.123970
							CHANNELS 3 Zrotation Yrotation Xrotation
							End Site
							{
								OFFSET 0.000000 0.000000 0.000000
							}
						}
					}
				}
				JOINT LeftShoulder
				{
					OFFSET 0.000000 0.000000 0.000000
					CHANNELS 3 Zrotation Yrotation Xrotation
					JOINT LeftArm
					{
						OFFSET 3.362410 1.200890 -0.311210
						CHANNELS 3 Zrotation Yrotation Xrotation
						JOINT LeftForeArm
						{
							OFFSET 4.983000 -0.000000 -0.000000
							CHANNELS 3 Zrotation Yrotation Xrotation
							JOINT LeftHand
							{
								OFFSET 3.483560 -0.000000 -0.000000
								CHANNELS 3 Zrotation Yrotation Xrotation
								JOINT LeftFingerBase
								{
									OFFSET 0.000000 0.000000 0.000000
									CHANNELS 3 Zrotation Yrotation Xrotation
									JOINT LeftHandIndex1
									{
										OFFSET 0.715260 -0.000000 -0.000000
										CHANNELS 3 Zrotation Yrotation Xrotation
										End Site
										{
											OFFSET 0.000000 0.000000 0.000000
										}
									}
								}
								JOINT LThumb
								{
									OFFSET 0.000000 0.000000 0.000000
									CHANNELS 3 Zrotation Yrotation Xrotation
									End Site
									{
										OFFSET 0.000000 0.000000 0.000000
									}
								}
							}
						}
					}
				}
				JOINT RightShoulder
				{
					OFFSET 0.000000 0.000000 0.000000
					CHANNELS 3 Zrotation Yrotation Xrotation
					JOINT RightArm
					{
						OFFSET -3.136600 1.374050 -0.404650
						CHANNELS 3 Zrotation Yrotation Xrotation
						JOINT RightForeArm
						{
							OFFSET -5.241900 -0.000000 -0.000000
							CHANNELS 3 Zrotation Yrotation Xrotation
							JOINT RightHand
							{
								OFFSET -3.444170 -0.000000 -0.000000
								CHANNELS 3 Zrotation Yrotation Xrotation
								JOINT RightFingerBase
								{
									OFFSET 0.000000 0.000000 0.000000
									CHANNELS 3 Zrotation Yrotation Xrotation
									JOINT RightHandIndex1
									{
										OFFSET -0.622530 -0.000000 -0.000000
										CHANNELS 3 Zrotation Yrotation Xrotation
										End Site
										{
											OFFSET 0.000000 0.000000 0.000000
										}
									}
								}
								JOINT RThumb
								{
									OFFSET 0.000000 0.000000 0.000000
									CHANNELS 3 Zrotation Yrotation Xrotation
									End Site
									{
										OFFSET 0.000000 0.000000 0.000000
									}
								}
							}
						}
					}
				}
			}
		}
	}
}
}
MOTION
Frames: 14
Frame Time: 0.008333
6.276168 16.754163 0.513750 47.783233 86.542639 58.505050 -4.556760 2.369647 -7.186234 -2.369918 2.480872 -4.488180 -7.919738 2.477512 0.044528 11.879813 -7.176709 -8.106283 -3.553613 -0.282852 -0.111142 0.000000 0.000000 0.000000 -0.937147 23.760279 0.217874 -56.751947 21.344009 5.211068 -0.852823 -73.866741 0.001675 8.919272 0.386333 0.032200 -0.181733 0.002937 -0.000000 0.000000 0.000000 0.000000 0.000000 0.000000 0.000000 17.718655 2.601434 -1.432577 76.507191 12.885192 22.786360 1.257389 68.754873 0.009514 0.408909 7.510427 0.029023 0.019709 -0.414169 -0.000000 0.000000 0.000000 0.000000 0.000000 0.000000 0.000000 
6.491185 16.726451 0.544584 55.209741 86.192872 65.646198 -5.098771 2.131376 -6.930754 -2.474195 2.302338 -4.433633 -7.936562 2.300367 0.044600 12.036176 -7.215316 -8.117927 -3.619043 -0.287233 -0.121540 0.000000 0.000000 0.000000 -1.007242 23.537652 0.224507 -57.049908 20.785909 4.954895 -0.882288 -73.371235 0.001563 9.113342 0.361127 0.030692 -0.180563 0.004037 -0.000000 0.000000 0.000000 0.000000 0.000000 0.000000 0.000000 18.269164 2.436806 -1.404030 76.725018 12.523976 22.244730 1.299055 67.658014 0.008557 0.186106 7.722161 0.013615 0.024158 -0.410140 -0.000000 0.000000 0.000000 0.000000 0.000000 0.000000 0.000000 
6.701889 16.706121 0.573395 60.450417 85.756056 70.627217 -5.613148 1.912774 -6.684011 -2.568095 2.138023 -4.377617 -7.944582 2.135568 0.055341 12.161752 -7.263873 -8.132204 -3.681577 -0.291291 -0.132616 0.000000 0.000000 0.000000 -1.157589 23.334269 0.220968 -57.373851 20.041608 4.787008 -0.920413 -72.720344 0.001468 9.306161 0.335366 0.029084 -0.179245 0.004981 -0.000000 0.000000 0.000000 0.000000 0.000000 0.000000 0.000000 18.777873 2.245871 -1.380828 76.935501 12.124706 21.651045 1.340865 66.469740 0.007127 -0.140846 7.931670 -0.010393 0.030018 -0.404842 -0.000000 0.000000 0.000000 0.000000 0.000000 0.000000 0.000000 
6.908462 16.693689 0.598912 63.801975 85.297702 73.753207 -6.053471 1.714765 -6.456643 -2.642136 1.985309 -4.322859 -7.942745 1.980865 0.072835 12.244533 -7.318307 -8.145528 -3.739630 -0.295008 -0.142851 0.000000 0.000000 0.000000 -1.411583 23.136761 0.206522 -57.712018 19.147000 4.702617 -0.965283 -71.952516 0.001396 9.491295 0.309740 0.027377 -0.177812 0.005761 -0.000000 0.000000 0.000000 0.000000 0.000000 0.000000 0.000000 19.220644 2.032826 -1.362021 77.130417 11.679186 21.011437 1.381497 65.201370 0.005272 -0.570584 8.117609 -0.043207 0.037155 -0.397926 -0.000000 0.000000 0.000000 0.000000 0.000000 0.000000 0.000000 
7.111192 16.689243 0.620712 65.641166 84.852996 75.405557 -6.399621 1.538062 -6.257210 -2.692723 1.843872 -4.271195 -7.930626 1.836388 0.096779 12.281134 -7.378402 -8.157474 -3.791645 -0.298303 -0.151818 0.000000 0.000000 0.000000 -1.766285 22.943772 0.181571 -58.062333 18.123048 4.702742 -1.015443 -71.095069 0.001331 9.664402 0.281702 0.025371 -0.176305 0.006530 -0.000000 0.000000 0.000000 0.000000 0.000000 0.000000 0.000000 19.585429 1.799775 -1.346341 77.302857 11.189872 20.340498 1.420090 63.865436 0.003071 -1.094419 8.257787 -0.084223 0.045359 -0.389187 -0.000000 0.000000 0.000000 0.000000 0.000000 0.000000 0.000000 
7.310354 16.692424 0.639035 66.274152 84.431641 75.891466 -6.653730 1.382250 -6.090683 -2.720796 1.714147 -4.222518 -7.907704 1.703096 0.132491 12.275750 -7.449543 -8.172812 -3.835731 -0.300978 -0.160772 0.000000 0.000000 0.000000 -2.196052 22.775340 0.147388 -58.434280 16.960798 4.800112 -1.070422 -70.155852 0.001236 9.823371 0.246074 0.022567 -0.174838 0.007611 -0.000000 0.000000 0.000000 0.000000 0.000000 0.000000 0.000000 19.870492 1.544204 -1.333664 77.446859 10.671427 19.664371 1.456110 62.475996 0.000650 -1.697518 8.331176 -0.131447 0.054377 -0.378557 -0.000000 0.000000 0.000000 0.000000 0.000000 0.000000 0.000000 
7.506459 16.702803 0.653507 65.847886 84.052501 75.366149 -6.795492 1.247558 -5.968771 -2.722498 1.594902 -4.181373 -7.874294 1.579559 0.171282 12.224175 -7.523552 -8.184090 -3.871716 -0.303165 -0.167209 0.000000 0.000000 0.000000 -2.708503 22.598595 0.104843 -58.816365 15.737889 4.972059 -1.126262 -69.204573 0.001108 9.964230 0.203658 0.018967 -0.173380 0.009006 -0.000000 0.000000 0.000000 0.000000 0.000000 0.000000 0.000000 20.065018 1.277415 -1.319566 77.556190 10.116585 18.998393 1.489409 61.052319 -0.001829 -2.351438 8.320954 -0.181579 0.063768 -0.366057 -0.000000 0.000000 0.000000 0.000000 0.000000 0.000000 0.000000 
7.699830 16.719520 0.664867 64.569930 83.704003 74.035193 -6.843051 1.130485 -5.891994 -2.701905 1.484542 -4.146891 -7.830339 1.464511 0.217759 12.135233 -7.604782 -8.195625 -3.898540 -0.304719 -0.172443 0.000000 0.000000 0.000000 -3.268618 22.430687 0.056357 -59.219272 14.451094 5.228039 -1.182129 -68.253533 0.000901 10.087745 0.150081 0.014169 -0.172067 0.011044 -0.000000 0.000000 0.000000 0.000000 0.000000 0.000000 0.000000 20.176299 0.997818 -1.303823 77.625142 9.540999 18.373346 1.520106 59.613204 -0.004208 -3.026190 8.216233 -0.230319 0.073140 -0.351871 -0.000000 0.000000 0.000000 0.000000 0.000000 0.000000 0.000000 
7.890883 16.741735 0.673531 62.603060 83.378996 72.060217 -6.804843 1.026958 -5.861350 -2.661029 1.379778 -4.120277 -7.776375 1.354619 0.268071 12.013504 -7.690105 -8.204374 -3.916499 -0.305705 -0.175611 0.000000 0.000000 0.000000 -3.858571 22.255298 0.004307 -59.642485 13.145211 5.555984 -1.235294 -67.347513 0.000591 10.194185 0.084877 0.008074 -0.170929 0.013858 -0.000000 0.000000 0.000000 0.000000 0.000000 0.000000 0.000000 20.208647 0.710482 -1.284001 77.648926 8.946711 17.810540 1.548689 58.179376 -0.006331 -3.684357 8.015022 -0.273267 0.082024 -0.336280 0.000000 0.000000 0.000000 0.000000 0.000000 0.000000 0.000000 
8.080021 16.768508 0.680198 60.139142 83.065399 69.627818 -6.697244 0.931453 -5.872348 -2.603554 1.276471 -4.101183 -7.713194 1.245813 0.320199 11.866147 -7.778794 -8.209190 -3.926217 -0.306178 -0.176531 0.000000 0.000000 0.000000 -4.453678 22.062511 -0.048577 -60.087212 11.850357 5.948362 -1.283738 -66.518734 0.000153 10.284900 0.007691 0.000786 -0.170016 0.017595 -0.000000 0.000000 0.000000 0.000000 0.000000 0.000000 0.000000 20.171985 0.417241 -1.258674 77.622979 8.338303 17.330488 1.575889 56.771614 -0.008061 -4.287971 7.724932 -0.306221 0.090003 -0.319661 -0.000000 0.000000 0.000000 0.000000 0.000000 0.000000 0.000000 
8.267577 16.798957 0.685641 57.392871 82.752060 66.944158 -6.540019 0.837097 -5.916671 -2.533898 1.169409 -4.087978 -7.642015 1.133077 0.374014 11.701931 -7.869608 -8.210500 -3.928736 -0.306183 -0.175589 0.000000 0.000000 0.000000 -5.026994 21.853025 -0.099422 -60.555498 10.575036 6.406086 -1.326521 -65.783317 -0.000442 10.363196 -0.081916 -0.007899 -0.169421 0.022413 -0.000000 0.000000 0.000000 0.000000 0.000000 0.000000 0.000000 20.080620 0.119832 -1.228113 77.542412 7.719604 16.947137 1.602300 55.412469 -0.009304 -4.800716 7.361332 -0.326481 0.096699 -0.302431 0.000000 0.000000 0.000000 0.000000 0.000000 0.000000 0.000000 
8.453842 16.832388 0.690440 54.569986 82.435957 64.205765 -6.346841 0.737523 -5.985404 -2.455107 1.053362 -4.080841 -7.563855 1.011049 0.421543 11.524648 -7.966102 -8.202912 -3.925826 -0.305928 -0.171351 0.000000 0.000000 0.000000 -5.566507 21.581729 -0.146290 -61.038528 9.384930 6.899503 -1.360431 -65.190622 -0.001199 10.428020 -0.180794 -0.017679 -0.168997 0.028264 -0.000000 0.000000 0.000000 0.000000 0.000000 0.000000 0.000000 19.944331 -0.187695 -1.188731 77.405632 7.094595 16.674914 1.629455 54.112529 -0.010000 -5.195276 6.951766 -0.333544 0.101928 -0.285039 0.000000 0.000000 0.000000 0.000000 0.000000 0.000000 0.000000 
8.639102 16.868104 0.695190 51.874107 82.118664 61.605356 -6.136424 0.625181 -6.067097 -2.371431 0.922512 -4.076275 -7.480683 0.874362 0.467276 11.344088 -8.067894 -8.191108 -3.918771 -0.305406 -0.165509 0.000000 0.000000 0.000000 -6.045925 21.274234 -0.186689 -61.537683 8.242599 7.448251 -1.387004 -64.720905 -0.002138 10.484884 -0.289081 -0.028454 -0.168931 0.035308 -0.000000 0.000000 0.000000 0.000000 0.000000 0.000000 0.000000 19.781417 -0.504994 -1.144200 77.207232 6.465231 16.512548 1.657387 52.896467 -0.010130 -5.447757 6.521728 -0.328107 0.105477 -0.267886 0.000000 0.000000 0.000000 0.000000 0.000000 0.000000 0.000000 
8.823562 16.905592 0.700291 49.455972 81.809936 59.284318 -5.919593 0.494071 -6.152339 -2.285372 0.771949 -4.072611 -7.394359 0.718279 0.509893 11.165238 -8.175862 -8.175122 -3.909261 -0.304729 -0.158272 0.000000 0.000000 0.000000 -6.454600 20.925884 -0.219127 -62.044602 7.149263 8.052050 -1.406322 -64.377123 -0.003275 10.536062 -0.403887 -0.040123 -0.169249 0.043538 -0.000000 0.000000 0.000000 0.000000 0.000000 0.000000 0.000000 19.604622 -0.834354 -1.095617 76.944619 5.830806 16.452535 1.686483 51.781245 -0.009719 -5.545502 6.101055 -0.312372 0.107292 -0.251340 0.000000 0.000000 0.000000 0.000000 0.000000 0.000000 0.000000 
